<?xml version="1.0" encoding="UTF-8" standalone="no"?>
<!DOCTYPE svg PUBLIC "-//W3C//DTD SVG 1.1//EN" "http://www.w3.org/Graphics/SVG/1.1/DTD/svg11.dtd">
<svg width="100%" height="100%" viewBox="0 0 71 32" version="1.1" xmlns="http://www.w3.org/2000/svg" xmlns:xlink="http://www.w3.org/1999/xlink" xml:space="preserve" xmlns:serif="http://www.serif.com/" style="fill-rule:evenodd;clip-rule:evenodd;stroke-linejoin:round;stroke-miterlimit:2;">
    <g transform="matrix(0.852,0,0,0.852,-0.710035,3.00558)">
        <path d="M12.169,29.67C18.43,29.67 23.505,24.59 23.505,18.324L17.675,18.324C17.675,21.363 15.205,23.835 12.169,23.835C9.133,23.835 6.663,21.363 6.663,18.324L0.833,18.324C0.833,24.59 5.909,29.67 12.169,29.67Z" style="fill:white;fill-rule:nonzero;"/>
        <path d="M37.746,23.835C34.725,23.835 32.265,21.387 32.242,18.368C32.266,15.35 34.725,12.901 37.746,12.901C40.768,12.901 43.227,15.35 43.251,18.369C43.227,21.387 40.767,23.835 37.746,23.835ZM49.081,18.368C49.081,18.354 49.082,18.339 49.082,18.324L49.08,18.324C49.032,12.099 43.977,7.067 37.746,7.067C31.515,7.067 26.46,12.099 26.413,18.324L26.411,18.324C26.411,18.339 26.412,18.354 26.412,18.368C26.412,18.383 26.411,18.398 26.411,18.412L26.413,18.412C26.46,24.638 31.515,29.67 37.746,29.67C43.977,29.67 49.032,24.638 49.08,18.412L49.082,18.412C49.082,18.398 49.081,18.383 49.081,18.368Z" style="fill:white;fill-rule:nonzero;"/>
        <path d="M74.799,18.368C74.799,18.354 74.8,18.339 74.8,18.324L74.798,18.324C74.75,12.099 69.696,7.067 63.465,7.067C61.449,7.067 59.557,7.596 57.917,8.519L57.917,0.853L52.129,0.853L52.129,18.412L57.959,18.412C57.959,15.374 60.429,12.901 63.465,12.901C66.486,12.901 68.946,15.35 68.969,18.368C68.945,21.387 66.486,23.835 63.465,23.835L63.465,29.67C69.696,29.67 74.75,24.638 74.798,18.412L74.8,18.412C74.8,18.398 74.799,18.383 74.799,18.368Z" style="fill:white;fill-rule:nonzero;"/>
        <path d="M23.482,0.833L11.862,0.833L11.862,6.626L17.694,6.626L17.694,12.464L23.482,12.464L23.482,0.833Z" style="fill:white;fill-rule:nonzero;"/>
        <path d="M82.436,7.957L82.091,6.403L81.746,7.957L81.057,7.957L80.712,6.403L80.367,7.957L79.677,7.957L80.367,4.85L81.057,4.85L81.401,6.403L81.746,4.85L82.436,4.85L83.126,7.957L82.436,7.957ZM77.847,7.957C76.991,7.957 76.297,7.262 76.297,6.405C76.297,5.548 76.991,4.853 77.847,4.853C78.704,4.853 79.398,5.548 79.398,6.405C79.398,7.262 78.704,7.957 77.847,7.957ZM75.879,5.651C75.464,5.651 75.126,5.989 75.126,6.405C75.126,6.82 75.464,7.159 75.879,7.159L75.879,7.957C75.023,7.957 74.329,7.262 74.329,6.405C74.329,5.548 75.023,4.853 75.879,4.853L75.879,5.651ZM78.6,0.833C75.526,0.833 73.034,3.328 73.034,6.405C73.034,9.482 75.526,11.976 78.6,11.976C81.675,11.976 84.167,9.482 84.167,6.405C84.167,3.328 81.675,0.833 78.6,0.833Z" style="fill:white;fill-rule:nonzero;"/>
        <path d="M77.847,5.651C77.432,5.651 77.094,5.989 77.094,6.405C77.094,6.82 77.432,7.158 77.847,7.158C78.263,7.158 78.6,6.82 78.6,6.405C78.6,5.989 78.263,5.651 77.847,5.651Z" style="fill:white;fill-rule:nonzero;"/>
    </g>
</svg>
